<svg width="64" height="64" viewBox="0 0 64 64" fill="none" xmlns="http://www.w3.org/2000/svg">
  <!-- 배경 원 -->
  <circle cx="32" cy="32" r="32" fill="#f3f4f6"/>
  
  <!-- 회사 빌딩 아이콘 -->
  <rect x="20" y="18" width="12" height="28" fill="#6b7280" rx="1"/>
  <rect x="32" y="22" width="12" height="24" fill="#6b7280" rx="1"/>
  
  <!-- 빌딩 창문들 -->
  <rect x="22" y="22" width="2" height="2" fill="#f9fafb" rx="0.5"/>
  <rect x="26" y="22" width="2" height="2" fill="#f9fafb" rx="0.5"/>
  <rect x="22" y="26" width="2" height="2" fill="#f9fafb" rx="0.5"/>
  <rect x="26" y="26" width="2" height="2" fill="#f9fafb" rx="0.5"/>
  <rect x="22" y="30" width="2" height="2" fill="#f9fafb" rx="0.5"/>
  <rect x="26" y="30" width="2" height="2" fill="#f9fafb" rx="0.5"/>
  <rect x="22" y="34" width="2" height="2" fill="#f9fafb" rx="0.5"/>
  <rect x="26" y="34" width="2" height="2" fill="#f9fafb" rx="0.5"/>
  <rect x="22" y="38" width="2" height="2" fill="#f9fafb" rx="0.5"/>
  <rect x="26" y="38" width="2" height="2" fill="#f9fafb" rx="0.5"/>
  
  <rect x="34" y="26" width="2" height="2" fill="#f9fafb" rx="0.5"/>
  <rect x="38" y="26" width="2" height="2" fill="#f9fafb" rx="0.5"/>
  <rect x="34" y="30" width="2" height="2" fill="#f9fafb" rx="0.5"/>
  <rect x="38" y="30" width="2" height="2" fill="#f9fafb" rx="0.5"/>
  <rect x="34" y="34" width="2" height="2" fill="#f9fafb" rx="0.5"/>
  <rect x="38" y="34" width="2" height="2" fill="#f9fafb" rx="0.5"/>
  <rect x="34" y="38" width="2" height="2" fill="#f9fafb" rx="0.5"/>
  <rect x="38" y="38" width="2" height="2" fill="#f9fafb" rx="0.5"/>
  
  <!-- 입구/문 -->
  <rect x="23" y="40" width="6" height="6" fill="#374151" rx="1"/>
  <circle cx="26" cy="42.5" r="0.5" fill="#f9fafb"/>
</svg>